<svg xmlns="http://www.w3.org/2000/svg" viewBox="0 0 16 16" width="16" height="16" shape-rendering="crispEdges">
<rect x="5" y="1" width="6" height="1" fill="#1a1a2e"/>
<rect x="3" y="2" width="10" height="1" fill="#1a1a2e"/>
<rect x="2" y="3" width="12" height="10" fill="#f8f8f8"/>
<rect x="3" y="13" width="10" height="1" fill="#1a1a2e"/>
<rect x="5" y="14" width="6" height="1" fill="#1a1a2e"/>
<rect x="2" y="3" width="1" height="10" fill="#1a1a2e"/>
<rect x="13" y="3" width="1" height="10" fill="#1a1a2e"/>
<rect x="6" y="4" width="4" height="3" fill="#1a1a2e"/>
<rect x="5" y="5" width="1" height="1" fill="#1a1a2e"/>
<rect x="10" y="5" width="1" height="1" fill="#1a1a2e"/>
<rect x="4" y="8" width="2" height="2" fill="#1a1a2e"/>
<rect x="10" y="8" width="2" height="2" fill="#1a1a2e"/>
<rect x="7" y="9" width="2" height="3" fill="#1a1a2e"/>
<rect x="5" y="11" width="2" height="1" fill="#1a1a2e"/>
<rect x="9" y="11" width="2" height="1" fill="#1a1a2e"/>
</svg>
